<svg id="Layer_1" data-name="Layer 1" xmlns="http://www.w3.org/2000/svg" viewBox="0 0 444 97"><defs><style>.cls-1{fill:#010101;}.cls-2{fill:#231f20;}</style></defs><title>DW</title><g id="Box1_copy_2" data-name="Box1 copy 2"><path class="cls-1" d="M436.75,6.93H4.75V90.2h432V6.93Zm-268,79.53V10.67H433V86.46Zm-160.25,0V10.67H165V86.46Z"/></g><path class="cls-2" d="M17.33,78.82V19.76h20q12.06,0,19.09,3.62A27.27,27.27,0,0,1,67.55,34,29.67,29.67,0,0,1,71.7,49.36,28.94,28.94,0,0,1,69.41,60.7,29.24,29.24,0,0,1,52.86,76.62a29.83,29.83,0,0,1-6.14,1.76,81.85,81.85,0,0,1-10.67.44ZM36.39,27.3H25.8v44H36.64a43.2,43.2,0,0,0,9.86-.87,23.2,23.2,0,0,0,5.87-2.2,20,20,0,0,0,4.3-3.28,22,22,0,0,0,6.26-16q0-9.53-6.43-15.54a20.77,20.77,0,0,0-5.44-3.68,22.76,22.76,0,0,0-5.83-1.91A59.32,59.32,0,0,0,36.39,27.3Z"/><path class="cls-2" d="M102.52,78.69H100.7L76.86,19.29h8.53l23.75,59.4Z"/><path class="cls-2" d="M146.62,19.29h8.45l-23.92,59.4h-1.86L110,30.59l-4-11.3h8l16.49,40.77Z"/><path class="cls-2" d="M182.17,27a.48.48,0,0,1,.45-.49h8.06a13.3,13.3,0,1,1,0,26.59h-8.06a.49.49,0,0,1-.45-.49Zm8.2,24.47a11.67,11.67,0,1,0,0-23.33H184V51.46Z"/><path class="cls-2" d="M206.26,52.64,218,26.19a.54.54,0,0,1,.46-.26h.11a.47.47,0,0,1,.49.26l11.59,26.45c.08.22.08.45-.34.45h-1a.63.63,0,0,1-.53-.34l-3.08-7H211.16l-3,7a.63.63,0,0,1-.53.34h-1.07C206.26,53.09,206.14,52.94,206.26,52.64ZM225,44.28,218.53,29h-.08l-6.61,15.32Z"/><path class="cls-2" d="M234.87,26.61a.52.52,0,0,1,.57-.49h.65l18.23,23.74h0V27a.5.5,0,0,1,.5-.49h.76a.5.5,0,0,1,.49.49V53c0,.34-.3.49-.61.49H255s-.34-.11-18.39-24h0V52.6a.5.5,0,0,1-.49.49h-.72a.51.51,0,0,1-.5-.49Z"/><path class="cls-2" d="M269.87,27c-.08-.38.07-.49.42-.49h.91a.47.47,0,0,1,.45.41L278,49.18h.07l6.69-22.72a.59.59,0,0,1,.57-.34h.08a.6.6,0,0,1,.57.34l6.72,22.72h.08l6.34-22.27a.49.49,0,0,1,.46-.41h.91c.34,0,.49.11.42.49l-7.53,26.22a.35.35,0,0,1-.34.26h-.41a.36.36,0,0,1-.38-.26l-6.84-23.14h-.08l-6.84,23.14a.36.36,0,0,1-.38.26h-.42a.36.36,0,0,1-.34-.26Z"/><path class="cls-2" d="M301.71,52.64l11.71-26.45a.51.51,0,0,1,.45-.26H314a.47.47,0,0,1,.49.26l11.59,26.45c.07.22.07.45-.34.45h-1a.6.6,0,0,1-.53-.34l-3.08-7H306.61l-3,7a.63.63,0,0,1-.54.34H302C301.71,53.09,301.6,52.94,301.71,52.64Zm18.77-8.36L314,29h-.08L307.3,44.28Z"/><path class="cls-2" d="M332.87,28.13h-7.25c-.38,0-.5-.23-.5-.57V27a.48.48,0,0,1,.5-.49H342a.48.48,0,0,1,.5.49v.65a.48.48,0,0,1-.5.49h-7.29V52.6c0,.26-.23.49-.61.49h-.68a.51.51,0,0,1-.5-.49Z"/><path class="cls-2" d="M345.18,49.56l.35-.46c.26-.3.53-.42.83-.15a11.05,11.05,0,0,0,7,2.93c3.46,0,6.38-2.32,6.38-5.1,0-3.38-2.77-4.9-7.37-6.45-4.4-1.56-7.33-3.12-7.33-7.49,0-2.85,2.28-6.72,8.21-6.72a12.49,12.49,0,0,1,6.53,1.93.55.55,0,0,1,.15.8,4.3,4.3,0,0,0-.3.49.55.55,0,0,1-.84.19,11.16,11.16,0,0,0-5.58-1.78c-4.67,0-6.42,2.89-6.42,5,0,3.23,2.47,4.64,6.3,5.89,5.21,1.79,8.52,3.61,8.52,8,0,3.8-3.92,6.76-8.29,6.76a12.39,12.39,0,0,1-8.05-3.11C345.07,50.17,344.88,50,345.18,49.56Z"/><path class="cls-2" d="M379.19,26.12a13.68,13.68,0,1,1-13.68,13.71A13.66,13.66,0,0,1,379.19,26.12Zm0,25.68a12,12,0,1,0-12-12A12,12,0,0,0,379.19,51.8Z"/><path class="cls-2" d="M399.07,26.61a.52.52,0,0,1,.57-.49h.64l18.24,23.74h0V27a.5.5,0,0,1,.49-.49h.76a.5.5,0,0,1,.5.49V53c0,.34-.31.49-.61.49h-.49s-.35-.11-18.39-24h0V52.6a.51.51,0,0,1-.5.49h-.72a.5.5,0,0,1-.49-.49Z"/><path class="cls-2" d="M182.83,63.81a.14.14,0,0,1,.14-.14h4.25a.14.14,0,0,1,.14.14V64a.13.13,0,0,1-.14.13h-3.88v3.23h3.36a.14.14,0,0,1,.14.14c0,.11,0,.3-.14.3h-3.36V71c0,.08-.06.14-.17.14H183a.14.14,0,0,1-.14-.14Z"/><path class="cls-2" d="M188.91,63.81a.13.13,0,0,1,.13-.14h2.63a2.27,2.27,0,0,1,.62,4.48l1.55,2.75c0,.09,0,.19-.08.19h-.32a.15.15,0,0,1-.15-.09l-1.54-2.78h-2.34V71a.15.15,0,0,1-.17.14H189a.13.13,0,0,1-.13-.14Zm2.74,4a1.85,1.85,0,0,0,1.88-1.84,1.83,1.83,0,0,0-1.89-1.78h-2.22v3.62Z"/><path class="cls-2" d="M199.08,63.56a3.82,3.82,0,1,1-3.81,3.83A3.81,3.81,0,0,1,199.08,63.56Zm0,7.17a3.35,3.35,0,1,0-3.35-3.34A3.35,3.35,0,0,0,199.08,70.73Z"/><path class="cls-2" d="M204.63,63.7a.14.14,0,0,1,.16-.14H205l5.09,6.63h0V63.81a.13.13,0,0,1,.13-.14h.22a.13.13,0,0,1,.13.14v7.25a.15.15,0,0,1-.17.14h-.13s-.1,0-5.14-6.69h0V71a.13.13,0,0,1-.13.14h-.21a.13.13,0,0,1-.13-.14Z"/><path class="cls-2" d="M213.92,64.12h-2c-.11,0-.14-.06-.14-.16v-.15a.13.13,0,0,1,.14-.14h4.56a.14.14,0,0,1,.14.14V64a.13.13,0,0,1-.14.13h-2V71c0,.08-.06.14-.17.14h-.19a.14.14,0,0,1-.14-.14Z"/><path class="cls-2" d="M220.1,63.81a.14.14,0,0,1,.14-.14h4.25a.14.14,0,0,1,.14.14V64a.13.13,0,0,1-.14.13h-3.88v2.93H224a.14.14,0,0,1,.14.14v.18a.14.14,0,0,1-.14.14h-3.36v3.14h3.88a.13.13,0,0,1,.14.13V71a.14.14,0,0,1-.14.14h-4.25a.14.14,0,0,1-.14-.14Z"/><path class="cls-2" d="M226.44,63.7a.14.14,0,0,1,.16-.14h.18l5.09,6.63h0V63.81a.14.14,0,0,1,.14-.14h.21a.14.14,0,0,1,.14.14v7.25a.16.16,0,0,1-.17.14h-.14s-.09,0-5.13-6.69h0V71a.14.14,0,0,1-.14.14h-.2a.14.14,0,0,1-.14-.14Z"/><path class="cls-2" d="M234.61,63.81a.14.14,0,0,1,.13-.14H237a3.71,3.71,0,1,1,0,7.42h-2.25a.14.14,0,0,1-.13-.14Zm2.29,6.83a3.26,3.26,0,1,0,0-6.52h-1.79v6.52Z"/><path class="cls-2" d="M244,63.81c0-.11,0-.14.11-.14h.26a.13.13,0,0,1,.12.11L246.31,70h0l1.86-6.34a.16.16,0,0,1,.16-.1h0a.15.15,0,0,1,.16.1L250.41,70h0l1.77-6.22a.14.14,0,0,1,.13-.11h.25c.1,0,.14,0,.12.14l-2.1,7.31a.09.09,0,0,1-.09.08h-.12a.11.11,0,0,1-.11-.08l-1.91-6.46h0l-1.91,6.46c0,.06-.05.08-.1.08h-.12a.09.09,0,0,1-.09-.08Z"/><path class="cls-2" d="M254.2,63.81a.14.14,0,0,1,.14-.14h4.25a.14.14,0,0,1,.14.14V64a.13.13,0,0,1-.14.13h-3.88v2.93h3.36a.14.14,0,0,1,.14.14v.18a.14.14,0,0,1-.14.14h-3.36v3.14h3.88a.13.13,0,0,1,.14.13V71a.14.14,0,0,1-.14.14h-4.25a.14.14,0,0,1-.14-.14Z"/><path class="cls-2" d="M260.54,63.81a.14.14,0,0,1,.14-.14h2.26a2,2,0,0,1,2.19,1.92A1.83,1.83,0,0,1,264,67.31a1.75,1.75,0,0,1,1.4,1.77,2.1,2.1,0,0,1-2.34,2h-2.35a.14.14,0,0,1-.14-.14Zm2.54,6.84a1.61,1.61,0,0,0,1.75-1.58c0-.95-.81-1.51-1.82-1.51h-2v3.09ZM263,67.1a1.44,1.44,0,0,0,1.58-1.49,1.45,1.45,0,0,0-1.65-1.48H261v3Z"/><path class="cls-2" d="M269.44,63.81a.14.14,0,0,1,.13-.14h2.25a3.71,3.71,0,1,1,0,7.42h-2.25a.14.14,0,0,1-.13-.14Zm2.3,6.83a3.26,3.26,0,1,0,0-6.52h-1.8v6.52Z"/><path class="cls-2" d="M277.27,63.81a.14.14,0,0,1,.14-.14h4.25a.14.14,0,0,1,.14.14V64a.14.14,0,0,1-.14.13h-3.88v2.93h3.36a.14.14,0,0,1,.14.14v.18a.15.15,0,0,1-.14.14h-3.36v3.14h3.88a.14.14,0,0,1,.14.13V71a.14.14,0,0,1-.14.14h-4.25a.14.14,0,0,1-.14-.14Z"/><path class="cls-2" d="M282.55,63.81c-.05-.09,0-.14.08-.14h.29a.12.12,0,0,1,.11.07l2.87,6.59h0l2.89-6.59a.13.13,0,0,1,.12-.07h.28c.09,0,.13.06.09.15l-3.25,7.28a.17.17,0,0,1-.13.1h-.05a.14.14,0,0,1-.12-.1Z"/><path class="cls-2" d="M290.51,63.81a.13.13,0,0,1,.13-.14h4.26a.14.14,0,0,1,.14.14V64a.14.14,0,0,1-.14.13H291v2.93h3.36a.14.14,0,0,1,.14.14v.18a.15.15,0,0,1-.14.14H291v3.14h3.88a.14.14,0,0,1,.14.13V71a.14.14,0,0,1-.14.14h-4.26a.13.13,0,0,1-.13-.14Z"/><path class="cls-2" d="M296.85,63.81a.13.13,0,0,1,.13-.14h.24a.13.13,0,0,1,.12.14v6.84h3.39c.12,0,.14.06.14.13V71a.13.13,0,0,1-.14.12H297a.13.13,0,0,1-.13-.14Z"/><path class="cls-2" d="M305.2,63.56a3.82,3.82,0,1,1-3.82,3.83A3.82,3.82,0,0,1,305.2,63.56Zm0,7.17a3.35,3.35,0,1,0-3.35-3.34A3.34,3.34,0,0,0,305.2,70.73Z"/><path class="cls-2" d="M310.74,63.81a.14.14,0,0,1,.14-.14h2.28a2.39,2.39,0,1,1,0,4.78h-1.93V71c0,.08-.06.14-.17.14h-.19a.14.14,0,0,1-.14-.14Zm2.4,4.15A1.94,1.94,0,0,0,315.06,66a1.9,1.9,0,0,0-1.93-1.86h-1.89V68Z"/><path class="cls-2" d="M317,63.81a.14.14,0,0,1,.14-.14h4.25a.14.14,0,0,1,.14.14V64a.14.14,0,0,1-.14.13h-3.88v2.93h3.36a.14.14,0,0,1,.14.14v.18a.15.15,0,0,1-.14.14h-3.36v3.14h3.88a.14.14,0,0,1,.14.13V71a.14.14,0,0,1-.14.14h-4.25A.14.14,0,0,1,317,71Z"/><path class="cls-2" d="M323.38,63.81a.13.13,0,0,1,.13-.14h2.63a2.27,2.27,0,0,1,.62,4.48l1.55,2.75c.05.09,0,.19-.08.19h-.32a.15.15,0,0,1-.15-.09l-1.54-2.78h-2.34V71a.15.15,0,0,1-.17.14h-.2a.13.13,0,0,1-.13-.14Zm2.74,4A1.85,1.85,0,0,0,328,65.94a1.83,1.83,0,0,0-1.89-1.78h-2.22v3.62Z"/><path class="cls-2" d="M333.9,67.63h-1.82a.14.14,0,0,1-.14-.13v-.16a.14.14,0,0,1,.14-.14h1.82V65.36a.13.13,0,0,1,.14-.12h.17a.13.13,0,0,1,.14.12V67.2h1.81a.14.14,0,0,1,.14.14v.16a.13.13,0,0,1-.14.13h-1.81v1.82a.14.14,0,0,1-.14.14H334a.15.15,0,0,1-.14-.14Z"/><path class="cls-2" d="M340.13,63.81a.14.14,0,0,1,.14-.14h.23a.13.13,0,0,1,.13.14v4.52a2.28,2.28,0,1,0,4.56,0V63.81c0-.09.05-.14.15-.14h.21a.14.14,0,0,1,.14.14v4.58a2.78,2.78,0,1,1-5.56,0Z"/><path class="cls-2" d="M347.85,63.81a.14.14,0,0,1,.14-.14h.23a.14.14,0,0,1,.14.14V71a.14.14,0,0,1-.15.14H348a.14.14,0,0,1-.14-.14Z"/><path class="cls-2" d="M352.21,63.75a.14.14,0,0,1,.14-.08h.15c.09,0,.15.06.12.15L350.28,71a.15.15,0,0,1-.14.09H350c-.08,0-.15,0-.11-.15Z"/><path class="cls-2" d="M353.94,63.81a.13.13,0,0,1,.13-.14h.23a.14.14,0,0,1,.14.14v4.52a2.28,2.28,0,1,0,4.56,0V63.81a.12.12,0,0,1,.14-.14h.22a.13.13,0,0,1,.13.14v4.58a2.78,2.78,0,1,1-5.55,0Z"/><path class="cls-2" d="M363.2,67.29,361,63.83c-.06-.09,0-.16.08-.16h.34a.18.18,0,0,1,.14.06l1.92,3.12h0l1.94-3.12a.17.17,0,0,1,.14-.06h.34c.1,0,.14.07.08.16l-2.18,3.46,2.32,3.64c0,.09,0,.16-.08.16h-.34a.17.17,0,0,1-.14-.06l-2.08-3.28h0L361.46,71a.17.17,0,0,1-.14.06H361c-.11,0-.14-.07-.09-.16Z"/><path class="cls-2" d="M369.94,63.81a.14.14,0,0,1,.13-.14h2.25a3.71,3.71,0,1,1,0,7.42h-2.25a.14.14,0,0,1-.13-.14Zm2.29,6.83a3.26,3.26,0,1,0,0-6.52h-1.79v6.52Z"/><path class="cls-2" d="M377.76,63.81a.14.14,0,0,1,.14-.14h4.26a.13.13,0,0,1,.13.14V64a.13.13,0,0,1-.13.13h-3.89v2.93h3.37a.13.13,0,0,1,.13.14v.18a.14.14,0,0,1-.13.14h-3.37v3.14h3.89a.13.13,0,0,1,.13.13V71a.13.13,0,0,1-.13.14H377.9a.14.14,0,0,1-.14-.14Z"/><path class="cls-2" d="M383.66,70.1l.09-.12c.08-.09.15-.12.24,0a3.1,3.1,0,0,0,2,.81,1.66,1.66,0,0,0,1.78-1.42c0-.94-.77-1.37-2.06-1.8s-2-.87-2-2.09a2,2,0,0,1,2.29-1.88,3.46,3.46,0,0,1,1.82.54.16.16,0,0,1,0,.23l-.08.13c-.07.09-.13.12-.23.06a3.19,3.19,0,0,0-1.56-.5c-1.31,0-1.8.8-1.8,1.41,0,.9.69,1.29,1.77,1.64,1.45.5,2.37,1,2.37,2.24a2.16,2.16,0,0,1-2.31,1.89,3.46,3.46,0,0,1-2.25-.87C383.63,70.27,383.57,70.22,383.66,70.1Z"/><path class="cls-2" d="M389.86,63.81a.14.14,0,0,1,.14-.14h.23a.14.14,0,0,1,.14.14V71a.14.14,0,0,1-.15.14H390a.14.14,0,0,1-.14-.14Z"/><path class="cls-2" d="M395.92,63.56a3.6,3.6,0,0,1,2.57,1,.14.14,0,0,1,0,.19l-.17.18c-.06.07-.12.06-.18,0a3.27,3.27,0,0,0-2.24-.89,3.34,3.34,0,0,0,0,6.68,4,4,0,0,0,2.21-.58v-2h-1.81c-.12,0-.14,0-.14-.14v-.21c0-.08,0-.12.14-.12h2.17a.14.14,0,0,1,.14.12v2.46a.3.3,0,0,1-.15.28,4.89,4.89,0,0,1-2.55.68,3.82,3.82,0,1,1,0-7.64Z"/><path class="cls-2" d="M400.49,63.7a.15.15,0,0,1,.16-.14h.18l5.09,6.63h0V63.81a.14.14,0,0,1,.14-.14h.21a.14.14,0,0,1,.14.14v7.25a.16.16,0,0,1-.17.14h-.14s-.09,0-5.13-6.69h0V71a.14.14,0,0,1-.14.14h-.2a.14.14,0,0,1-.14-.14Z"/><path class="cls-2" d="M408.66,63.81a.14.14,0,0,1,.14-.14h4.25a.14.14,0,0,1,.14.14V64a.13.13,0,0,1-.14.13h-3.88v2.93h3.36a.14.14,0,0,1,.14.14v.18a.14.14,0,0,1-.14.14h-3.36v3.14h3.88a.13.13,0,0,1,.14.13V71a.14.14,0,0,1-.14.14H408.8a.14.14,0,0,1-.14-.14Z"/><path class="cls-2" d="M415,63.81a.13.13,0,0,1,.14-.14h2.63a2.27,2.27,0,0,1,.61,4.48l1.55,2.75c.06.09,0,.19-.07.19h-.33a.16.16,0,0,1-.15-.09l-1.54-2.78H415.5V71c0,.08-.06.14-.17.14h-.19A.14.14,0,0,1,415,71Zm2.75,4a1.85,1.85,0,0,0,1.88-1.84,1.83,1.83,0,0,0-1.89-1.78h-2.23v3.62Z"/></svg>