<svg version="1.1" id="Layer_1" xmlns="http://www.w3.org/2000/svg" x="0" y="0" viewBox="0 0 444 97" style="enable-background:new 0 0 444 97" xml:space="preserve"><style>.st0{fill:#fff}</style><path class="st0" d="M436.75 6.93h-432V90.2h432V6.93zM168.76 86.46V10.67H433v75.79H168.76zm-160.25 0V10.67h156.51v75.79H8.51z" id="Box1_copy_2"/><path class="st0" d="M17.33 78.82V19.76h19.94c8.04 0 14.41 1.21 19.09 3.62 4.69 2.41 8.41 5.96 11.18 10.65 2.77 4.69 4.15 9.79 4.15 15.33 0 3.95-.76 7.73-2.29 11.35-1.52 3.61-3.7 6.79-6.52 9.53a28.651 28.651 0 0 1-10.03 6.39c-2.23.88-4.28 1.46-6.14 1.76-1.86.3-5.42.44-10.67.44H17.33zM36.39 27.3H25.8v43.99h10.84c4.23 0 7.52-.29 9.86-.87 2.34-.58 4.3-1.31 5.86-2.2 1.57-.89 3-1.98 4.3-3.28 4.18-4.23 6.27-9.58 6.27-16.05 0-6.35-2.15-11.53-6.44-15.54-1.58-1.5-3.39-2.72-5.44-3.68-2.05-.96-3.99-1.59-5.82-1.91-1.83-.31-4.78-.46-8.84-.46zM102.52 78.69h-1.82l-23.84-59.4h8.53l23.75 59.4h-6.62zM146.62 19.29h8.44l-23.91 59.4h-1.86l-19.34-48.1-3.95-11.3h8l16.49 40.77 16.13-40.77zM182.17 26.99c0-.27.23-.49.46-.49h8.05c7.37 0 13.37 5.97 13.37 13.26 0 7.41-6 13.34-13.37 13.34h-8.05c-.23 0-.46-.23-.46-.49V26.99zm8.2 24.47c6.65 0 11.78-5.05 11.78-11.7 0-6.57-5.13-11.63-11.78-11.63h-6.42v23.33h6.42zM206.26 52.64l11.7-26.44c.08-.15.27-.27.46-.27h.11c.19 0 .38.04.49.27l11.59 26.44c.08.23.08.46-.34.46h-.99c-.27 0-.46-.19-.53-.34l-3.08-6.99h-14.51l-3.04 6.99c-.08.15-.27.34-.53.34h-1.06c-.27-.01-.39-.16-.27-.46zm18.77-8.36-6.5-15.31h-.08l-6.61 15.31h13.19zM234.87 26.61c0-.3.27-.49.57-.49h.65l18.24 23.75h.04V26.99c0-.27.23-.49.49-.49h.76c.27 0 .49.23.49.49v25.99c0 .34-.3.49-.61.49h-.49c-.04 0-.34-.11-18.39-23.97h-.04v23.1c0 .27-.23.49-.49.49h-.72c-.27 0-.49-.23-.49-.49V26.61zM269.87 26.99c-.08-.38.08-.49.42-.49h.91c.23 0 .42.19.46.42l6.38 22.26h.08l6.69-22.72c.08-.23.34-.34.57-.34h.08c.23 0 .49.11.57.34l6.72 22.72h.08l6.34-22.26c.04-.23.23-.42.46-.42h.91c.34 0 .49.11.42.49l-7.52 26.22c-.04.15-.19.27-.34.27h-.42c-.19 0-.3-.08-.38-.27l-6.84-23.14h-.08l-6.84 23.14c-.08.19-.19.27-.38.27h-.42a.36.36 0 0 1-.34-.27l-7.53-26.22zM301.71 52.64l11.7-26.44c.08-.15.27-.27.46-.27h.11c.19 0 .38.04.49.27l11.59 26.44c.08.23.08.46-.34.46h-.99c-.27 0-.46-.19-.53-.34l-3.08-6.99h-14.51l-3.04 6.99c-.08.15-.27.34-.53.34h-1.06c-.27-.01-.38-.16-.27-.46zm18.77-8.36-6.5-15.31h-.08l-6.61 15.31h13.19zM332.87 28.13h-7.26c-.38 0-.49-.23-.49-.57v-.57c0-.3.23-.49.49-.49h16.34c.3 0 .49.23.49.49v.65c0 .27-.19.49-.49.49h-7.29V52.6c0 .27-.23.49-.61.49h-.68c-.27 0-.49-.23-.49-.49V28.13zM345.18 49.56l.34-.46c.27-.3.53-.42.84-.15.38.34 3.19 2.93 7.03 2.93 3.46 0 6.38-2.32 6.38-5.09 0-3.38-2.77-4.9-7.37-6.46-4.41-1.56-7.33-3.12-7.33-7.48 0-2.85 2.28-6.73 8.21-6.73 3.76 0 6.54 1.94 6.54 1.94.15.11.42.38.15.8-.11.15-.23.34-.3.49-.23.3-.46.42-.84.19-.11-.08-2.66-1.79-5.58-1.79-4.67 0-6.42 2.89-6.42 5.05 0 3.23 2.47 4.64 6.31 5.89 5.21 1.79 8.51 3.61 8.51 8.02 0 3.8-3.91 6.76-8.28 6.76-4.52 0-7.56-2.66-8.05-3.12-.25-.18-.44-.37-.14-.79zM379.19 26.12c7.64 0 13.72 6.12 13.72 13.72 0 7.64-6.08 13.64-13.72 13.64-7.6 0-13.68-6-13.68-13.64 0-7.61 6.08-13.72 13.68-13.72zm0 25.68c6.65 0 12.04-5.32 12.04-11.97s-5.39-12.04-12.04-12.04-12.01 5.4-12.01 12.04a11.96 11.96 0 0 0 12.01 11.97zM399.07 26.61c0-.3.27-.49.57-.49h.65l18.24 23.75h.04V26.99c0-.27.23-.49.49-.49h.76c.27 0 .49.23.49.49v25.99c0 .34-.3.49-.61.49h-.49c-.04 0-.34-.11-18.39-23.97h-.04v23.1c0 .27-.23.49-.49.49h-.72c-.27 0-.49-.23-.49-.49V26.61zM182.83 63.81c0-.07.06-.14.14-.14h4.25c.07 0 .14.06.14.14v.18c0 .07-.06.14-.14.14h-3.88v3.22h3.36c.07 0 .14.06.14.14 0 .12.02.31-.14.31h-3.36l-.01 3.16c0 .07-.06.14-.17.14h-.19c-.07 0-.14-.06-.14-.14v-7.15zM188.91 63.81c0-.07.05-.14.14-.14h2.63c1.29 0 2.36.98 2.36 2.27 0 1.07-.74 1.93-1.75 2.22l1.55 2.75c.05.08.03.19-.07.19h-.33a.15.15 0 0 1-.15-.1l-1.54-2.78c-.14.01-.25.01-.39.01h-1.95v2.73c0 .07-.06.14-.17.14h-.19c-.07 0-.14-.06-.14-.14v-7.15zm2.74 3.97c1.02 0 1.88-.8 1.88-1.85 0-1.01-.86-1.78-1.89-1.78h-2.23v3.63h2.24zM199.08 63.56c2.13 0 3.83 1.71 3.83 3.83 0 2.13-1.7 3.81-3.83 3.81-2.12 0-3.82-1.68-3.82-3.81.01-2.12 1.7-3.83 3.82-3.83zm0 7.17c1.86 0 3.36-1.48 3.36-3.34s-1.51-3.36-3.36-3.36-3.35 1.51-3.35 3.36 1.5 3.34 3.35 3.34zM204.63 63.7c0-.08.07-.14.16-.14h.18l5.09 6.63h.01v-6.38c0-.07.06-.14.14-.14h.21c.07 0 .14.06.14.14v7.25c0 .1-.08.14-.17.14h-.14c-.01 0-.1-.03-5.13-6.69h-.01v6.45c0 .07-.06.14-.14.14h-.2c-.07 0-.14-.06-.14-.14V63.7zM213.92 64.12h-2.03c-.11 0-.14-.06-.14-.16v-.16c0-.08.06-.14.14-.14h4.56c.08 0 .14.06.14.14v.18c0 .07-.05.14-.14.14h-2.04v6.83c0 .07-.06.14-.17.14h-.19c-.07 0-.14-.06-.14-.14v-6.83zM220.1 63.81c0-.07.06-.14.14-.14h4.25c.07 0 .14.06.14.14v.18c0 .07-.06.14-.14.14h-3.88v2.93h3.36c.07 0 .14.06.14.14v.18c0 .07-.06.14-.14.14h-3.36v3.14h3.88c.07 0 .14.06.14.14v.17c0 .07-.06.14-.14.14h-4.25c-.07 0-.14-.06-.14-.14v-7.16zM226.44 63.7c0-.08.07-.14.16-.14h.18l5.09 6.63h.01v-6.38c0-.07.06-.14.14-.14h.21c.07 0 .14.06.14.14v7.25c0 .1-.08.14-.17.14h-.14c-.01 0-.1-.03-5.13-6.69h-.01v6.45c0 .07-.06.14-.14.14h-.2c-.07 0-.14-.06-.14-.14V63.7zM234.61 63.81c0-.07.06-.14.13-.14h2.25c2.06 0 3.73 1.67 3.73 3.7 0 2.07-1.68 3.72-3.73 3.72h-2.25c-.06 0-.13-.06-.13-.14v-7.14zm2.29 6.83c1.86 0 3.29-1.41 3.29-3.27 0-1.83-1.43-3.25-3.29-3.25h-1.79v6.51h1.79zM244.03 63.81c-.02-.11.02-.14.12-.14h.25c.06 0 .12.05.13.12l1.78 6.21h.02l1.87-6.34c.02-.06.1-.1.16-.1h.02c.06 0 .14.03.16.1l1.88 6.34h.02l1.77-6.21c.01-.06.06-.12.13-.12h.25c.1 0 .14.03.12.14l-2.1 7.32c-.01.04-.05.07-.09.07h-.12c-.05 0-.08-.02-.11-.07l-1.91-6.46h-.02l-1.91 6.46c-.02.05-.05.07-.11.07h-.12c-.04 0-.08-.03-.09-.07l-2.1-7.32zM254.2 63.81c0-.07.06-.14.14-.14h4.25c.07 0 .14.06.14.14v.18c0 .07-.06.14-.14.14h-3.88v2.93h3.36c.07 0 .14.06.14.14v.18c0 .07-.06.14-.14.14h-3.36v3.14h3.88c.07 0 .14.06.14.14v.17c0 .07-.06.14-.14.14h-4.25c-.07 0-.14-.06-.14-.14v-7.16zM260.54 63.81c0-.07.06-.14.14-.14h2.26c1.3 0 2.2.75 2.2 1.92 0 .84-.51 1.45-1.17 1.72.75.2 1.4.75 1.4 1.77 0 1.19-.95 2.02-2.33 2.02h-2.35c-.07 0-.14-.06-.14-.14v-7.15zm2.54 6.84c1.03 0 1.75-.66 1.75-1.58 0-.94-.81-1.51-1.81-1.51h-1.98v3.09h2.04zm-.07-3.55c1 0 1.58-.63 1.58-1.5 0-.92-.64-1.47-1.65-1.47h-1.9v2.97h1.97zM269.44 63.81c0-.07.06-.14.13-.14h2.25c2.06 0 3.73 1.67 3.73 3.7 0 2.07-1.68 3.72-3.73 3.72h-2.25c-.06 0-.13-.06-.13-.14v-7.14zm2.3 6.83c1.86 0 3.29-1.41 3.29-3.27 0-1.83-1.43-3.25-3.29-3.25h-1.79v6.51h1.79zM277.27 63.81c0-.07.06-.14.14-.14h4.25c.07 0 .14.06.14.14v.18c0 .07-.06.14-.14.14h-3.88v2.93h3.36c.07 0 .14.06.14.14v.18c0 .07-.06.14-.14.14h-3.36v3.14h3.88c.07 0 .14.06.14.14v.17c0 .07-.06.14-.14.14h-4.25c-.07 0-.14-.06-.14-.14v-7.16zM282.55 63.81c-.04-.08-.01-.14.08-.14h.29c.06 0 .11.04.12.07l2.86 6.59h.02l2.9-6.59c.01-.03.05-.07.12-.07h.28c.1 0 .14.06.1.15l-3.26 7.29c-.02.05-.06.1-.13.1h-.05c-.06 0-.11-.06-.12-.1l-3.21-7.3zM290.51 63.81c0-.07.06-.14.14-.14h4.25c.07 0 .14.06.14.14v.18c0 .07-.06.14-.14.14h-3.88v2.93h3.36c.07 0 .14.06.14.14v.18c0 .07-.06.14-.14.14h-3.36v3.14h3.88c.07 0 .14.06.14.14v.17c0 .07-.06.14-.14.14h-4.25c-.07 0-.14-.06-.14-.14v-7.16zM296.85 63.81c0-.07.06-.14.14-.14h.23c.06 0 .13.06.13.14v6.84h3.38c.13 0 .14.06.14.14v.19c0 .07-.06.12-.14.12h-3.74c-.07 0-.14-.06-.14-.14v-7.15zM305.2 63.56c2.13 0 3.83 1.71 3.83 3.83 0 2.13-1.7 3.81-3.83 3.81-2.12 0-3.82-1.68-3.82-3.81 0-2.12 1.7-3.83 3.82-3.83zm0 7.17c1.86 0 3.36-1.48 3.36-3.34s-1.51-3.36-3.36-3.36c-1.86 0-3.35 1.51-3.35 3.36s1.49 3.34 3.35 3.34zM310.74 63.81c0-.07.06-.14.14-.14h2.28c1.32 0 2.4 1.07 2.4 2.38 0 1.33-1.08 2.41-2.39 2.41h-1.93v2.5c0 .07-.06.14-.17.14h-.19c-.07 0-.14-.06-.14-.14v-7.15zm2.4 4.15c1.04 0 1.92-.86 1.92-1.93 0-1.04-.88-1.87-1.93-1.87h-1.89v3.8h1.9zM317.04 63.81c0-.07.06-.14.14-.14h4.25c.07 0 .14.06.14.14v.18c0 .07-.06.14-.14.14h-3.88v2.93h3.36c.07 0 .14.06.14.14v.18c0 .07-.06.14-.14.14h-3.36v3.14h3.88c.07 0 .14.06.14.14v.17c0 .07-.06.14-.14.14h-4.25c-.07 0-.14-.06-.14-.14v-7.16zM323.38 63.81c0-.07.05-.14.14-.14h2.63c1.29 0 2.37.98 2.37 2.27 0 1.07-.74 1.93-1.75 2.22l1.55 2.75c.05.08.03.19-.07.19h-.33a.15.15 0 0 1-.15-.1l-1.54-2.78c-.14.01-.25.01-.39.01h-1.95v2.73c0 .07-.06.14-.17.14h-.19c-.07 0-.14-.06-.14-.14v-7.15zm2.74 3.97c1.02 0 1.88-.8 1.88-1.85 0-1.01-.86-1.78-1.89-1.78h-2.23v3.63h2.24zM333.9 67.63h-1.82c-.07 0-.14-.06-.14-.14v-.16c0-.07.06-.14.14-.14h1.82v-1.83c0-.07.06-.13.14-.13h.17c.07 0 .14.05.14.13v1.83h1.81c.07 0 .14.06.14.14v.16c0 .07-.06.14-.14.14h-1.81v1.81c0 .07-.06.14-.14.14h-.17c-.07 0-.14-.06-.14-.14v-1.81zM340.13 63.81c0-.07.06-.14.14-.14h.22c.07 0 .14.06.14.14v4.53c0 1.37.86 2.38 2.27 2.38 1.42 0 2.29-1 2.29-2.36v-4.54c0-.08.04-.14.15-.14h.21c.07 0 .14.06.14.14v4.58c0 1.62-1.1 2.81-2.79 2.81-1.68 0-2.77-1.19-2.77-2.81v-4.59zM347.85 63.81c0-.07.06-.14.14-.14h.23c.07 0 .14.06.14.14v7.15c0 .08-.07.14-.15.14h-.22c-.07 0-.14-.06-.14-.14v-7.15zM352.21 63.75c.02-.05.07-.08.14-.08h.15c.1 0 .16.06.13.15L350.28 71a.15.15 0 0 1-.14.1h-.16c-.08 0-.15-.05-.12-.15l2.35-7.2zM353.94 63.81c0-.07.06-.14.14-.14h.22c.07 0 .14.06.14.14v4.53c0 1.37.86 2.38 2.27 2.38 1.42 0 2.29-1 2.29-2.36v-4.54c0-.08.04-.14.15-.14h.21c.07 0 .14.06.14.14v4.58c0 1.62-1.1 2.81-2.79 2.81-1.68 0-2.77-1.19-2.77-2.81v-4.59zM363.2 67.29l-2.17-3.47c-.05-.08-.02-.16.08-.16h.34c.05 0 .11.02.14.06l1.92 3.12h.01l1.94-3.12c.03-.04.08-.06.14-.06h.34c.11 0 .14.07.08.16l-2.18 3.47 2.32 3.64c.05.08.02.16-.08.16h-.34c-.05 0-.11-.02-.14-.06l-2.08-3.28h-.01l-2.05 3.28c-.03.04-.08.06-.14.06h-.34c-.11 0-.14-.07-.08-.16l2.3-3.64zM369.94 63.81c0-.07.06-.14.13-.14h2.25c2.06 0 3.73 1.67 3.73 3.7 0 2.07-1.68 3.72-3.73 3.72h-2.25c-.06 0-.13-.06-.13-.14v-7.14zm2.29 6.83c1.86 0 3.29-1.41 3.29-3.27 0-1.83-1.43-3.25-3.29-3.25h-1.79v6.51h1.79zM377.76 63.81c0-.07.06-.14.14-.14h4.25c.07 0 .14.06.14.14v.18c0 .07-.06.14-.14.14h-3.88v2.93h3.36c.07 0 .14.06.14.14v.18c0 .07-.06.14-.14.14h-3.36v3.14h3.88c.07 0 .14.06.14.14v.17c0 .07-.06.14-.14.14h-4.25c-.07 0-.14-.06-.14-.14v-7.16zM383.66 70.1l.1-.13c.07-.08.15-.12.23-.04.11.1.89.82 1.96.82.96 0 1.78-.65 1.78-1.42 0-.94-.77-1.37-2.06-1.8-1.23-.44-2.05-.87-2.05-2.09 0-.8.64-1.88 2.29-1.88 1.05 0 1.82.54 1.82.54.04.03.12.11.04.22-.03.04-.06.1-.08.14-.06.08-.13.12-.23.05-.03-.02-.74-.5-1.56-.5-1.3 0-1.79.81-1.79 1.41 0 .9.69 1.29 1.76 1.64 1.45.5 2.38 1.01 2.38 2.24 0 1.06-1.09 1.89-2.31 1.89-1.26 0-2.11-.74-2.25-.87-.06-.05-.12-.1-.03-.22zM389.86 63.81c0-.07.06-.14.14-.14h.23c.07 0 .14.06.14.14v7.15c0 .08-.07.14-.15.14H390c-.07 0-.14-.06-.14-.14v-7.15zM395.92 63.56c1.07 0 1.88.36 2.57.99.05.05.06.14.01.19-.05.06-.12.13-.17.18-.06.07-.12.06-.18 0-.59-.55-1.37-.89-2.24-.89-1.84 0-3.3 1.51-3.3 3.34 0 1.83 1.45 3.34 3.3 3.34 1.29 0 2.1-.5 2.21-.58v-1.99h-1.81c-.12 0-.14-.04-.14-.14v-.21c0-.08.02-.13.14-.13h2.17c.07 0 .14.06.14.13v2.46c0 .16-.06.21-.15.28-.19.13-1.16.68-2.54.68-2.13 0-3.84-1.68-3.84-3.81a3.813 3.813 0 0 1 3.83-3.84zM400.49 63.7c0-.08.07-.14.16-.14h.18l5.09 6.63h.01v-6.38c0-.07.06-.14.14-.14h.21c.07 0 .14.06.14.14v7.25c0 .1-.08.14-.17.14h-.14c-.01 0-.1-.03-5.13-6.69h-.01v6.45c0 .07-.06.14-.14.14h-.2c-.07 0-.14-.06-.14-.14V63.7zM408.66 63.81c0-.07.06-.14.14-.14h4.25c.07 0 .14.06.14.14v.18c0 .07-.06.14-.14.14h-3.88v2.93h3.36c.07 0 .14.06.14.14v.18c0 .07-.06.14-.14.14h-3.36v3.14h3.88c.07 0 .14.06.14.14v.17c0 .07-.06.14-.14.14h-4.25c-.07 0-.14-.06-.14-.14v-7.16zM415 63.81c0-.07.05-.14.14-.14h2.63c1.29 0 2.37.98 2.37 2.27 0 1.07-.74 1.93-1.75 2.22l1.55 2.75c.05.08.03.19-.07.19h-.33a.15.15 0 0 1-.15-.1l-1.54-2.78c-.14.01-.25.01-.39.01h-1.95v2.73c0 .07-.06.14-.17.14h-.19c-.07 0-.14-.06-.14-.14v-7.15zm2.75 3.97c1.02 0 1.88-.8 1.88-1.85 0-1.01-.86-1.78-1.89-1.78h-2.23v3.63h2.24z"/></svg>